<?xml version="1.0" encoding="UTF-8"?><svg id="a" xmlns="http://www.w3.org/2000/svg" width="48" height="76" viewBox="0 0 48 76"><defs><style>.c,.d{fill:none;}.e{opacity:.1;}.f,.g{fill:#fff;}.h{fill:#85b04c;}.i{fill:#7798c5;}.d{stroke:#fff;stroke-linecap:round;stroke-miterlimit:10;stroke-width:3px;}.d,.g{opacity:.2;}</style></defs><rect class="c" width="48" height="76"/><circle class="f" cx="13.28" cy="60.77" r="7.94"/><path class="i" d="M14.68,61.58l9.34-23.26-6.07-1.97-6.11,24.3c-.46,1.81,2.15,2.66,2.85,.92Z"/><polygon class="e" points="20.16 47.93 21.73 44.02 16.45 42.3 15.42 46.39 20.16 47.93"/><path class="h" d="M41.17,15.06L17.87,7.49c-2.09-.68-4.36,.48-5.04,2.57l-.04,.12c-.68,2.09,.48,4.36,2.57,5.04l.06,.02-6.02,18.55-.06-.02c-2.09-.68-4.36,.48-5.04,2.57l-.04,.12c-.68,2.09,.48,4.36,2.57,5.04l23.3,7.57c2.09,.68,4.36-.48,5.04-2.57l.04-.12c.68-2.09-.48-4.36-2.57-5.04l-.06-.02,6.02-18.55,.06,.02c2.09,.68,4.36-.48,5.04-2.57l.04-.12c.68-2.09-.48-4.36-2.57-5.04Z"/><circle class="g" cx="40.5" cy="18.23" r="1.5"/><line class="d" x1="35.94" y1="16.8" x2="27.94" y2="14.2"/></svg>