<?xml version="1.0" encoding="UTF-8"?><svg id="d" xmlns="http://www.w3.org/2000/svg" width="160" height="58" xmlns:xlink="http://www.w3.org/1999/xlink" viewBox="0 0 160 58"><defs><style>.f{fill:url(#c);}.g{fill:url(#b);}.h{fill:none;}.i{fill:#969696;}.j{fill:#da1b2c;}.k{fill:#4e4e4e;}</style><linearGradient id="b" x1="5.57" y1="28.54" x2="33.44" y2="28.54" gradientUnits="userSpaceOnUse"><stop offset="0" stop-color="#da1b2c"/><stop offset=".2" stop-color="#da1b2c"/><stop offset=".47" stop-color="#ec887e"/><stop offset=".48" stop-color="#e8706c"/><stop offset=".49" stop-color="#e35658"/><stop offset=".51" stop-color="#e04048"/><stop offset=".52" stop-color="#dd2f3b"/><stop offset=".54" stop-color="#db2332"/><stop offset=".58" stop-color="#da1c2d"/><stop offset=".66" stop-color="#da1b2c"/><stop offset=".7" stop-color="#dd2f3b"/><stop offset=".79" stop-color="#e56362"/><stop offset=".85" stop-color="#ec887e"/><stop offset="1" stop-color="#da1b2c"/></linearGradient><linearGradient id="c" x1="5.57" y1="18.48" x2="33.44" y2="18.48" gradientUnits="userSpaceOnUse"><stop offset="0" stop-color="#da1b2c"/><stop offset=".2" stop-color="#da1b2c"/><stop offset=".47" stop-color="#ec887e"/><stop offset=".48" stop-color="#e8706c"/><stop offset=".49" stop-color="#e35658"/><stop offset=".51" stop-color="#e04048"/><stop offset=".52" stop-color="#dd2f3b"/><stop offset=".54" stop-color="#db2332"/><stop offset=".58" stop-color="#da1c2d"/><stop offset=".66" stop-color="#da1b2c"/><stop offset=".7" stop-color="#dd2f3b"/><stop offset=".79" stop-color="#e56362"/><stop offset=".85" stop-color="#ec887e"/><stop offset="1" stop-color="#da1b2c"/></linearGradient><symbol id="a" viewBox="0 0 160 58"><g><rect class="h" width="160" height="58"/><g><g><path class="j" d="M60.78,44.43c-.11,2.74-3.27,4.51-5.6,3.13-1.74-.95-2.5-3.03-2.5-4.94,0-1.91,.76-3.98,2.5-4.94,2.26-1.21,5.15-.08,5.51,2.6h1.63c-.23-3.94-4.67-5.37-7.81-3.91-2.38,1.11-3.49,3.68-3.47,6.24-.44,7.5,10.26,9.77,11.39,1.77h-1.64v.04Z"/><path class="j" d="M75.93,47.65c-.59,0-.88-.29-.88-.9v-6.78c.19-2.84-2.22-4.3-4.74-4.14-2.71-.14-5.2,1.47-5.21,4.36h1.64c-.06-2.64,2.52-3.28,4.67-2.86,1.58,.17,2.38,1.86,1.87,3.3-.31,.76-1.09,.78-1.84,.87-2.12,.32-4.84,.24-6.28,2.03-1,1.3-.76,3.96,.66,4.98,2.44,1.69,6.27,1,7.71-1.67-.13,1.99,1.16,2.49,2.92,2.1v-1.4c-.16,.08-.33,.12-.53,.12Zm-2.51-5.56v1.97c.1,2.78-2.97,4.55-5.46,3.79-1.54-.38-2.39-2.6-1.21-3.73,1.39-1.21,3.61-1.12,5.36-1.49,.37-.07,1.1-.18,1.31-.55Z"/><path class="j" d="M87.39,43.01c-.68-.57-1.63-.91-2.5-1.05l-2.08-.47c-.82-.22-1.84-.52-2.36-1.26-.56-.84-.15-2.09,.72-2.54,1.99-1.1,5.35-.36,5.31,2.32h1.64c.1-4.64-6.8-5.55-9.11-2.24-1.39,2.67,.5,4.63,3.15,5.13,1.93,.43,6.02,.91,4.44,3.83-1.91,2.3-6.85,1.51-6.84-1.91h-1.64c.21,3.18,2.27,4.54,5.29,4.55,1.73,0,3.72-.5,4.68-2.06,.83-1.28,.56-3.38-.69-4.32Z"/><path class="j" d="M94.02,32.37h-1.64v3.83h-2.23v1.39h2.23v8.69c-.18,2.98,1.86,3,4.23,2.83v-1.39c-.46,.05-.92,.08-1.37,.08-1.14-.06-1.18-.66-1.22-1.64,0,0,0-8.57,0-8.57h2.6v-1.39h-2.6v-3.83Z"/><rect class="j" x="104.87" y="31.31" width="1.64" height="17.74"/><rect class="j" x="109.69" y="31.31" width="1.64" height="17.74"/><path class="j" d="M125.6,40c-.93-3.47-5.13-5.15-8.28-3.62-3.23,1.49-4.09,5.71-3.07,8.86,.92,3.48,5.13,5.1,8.28,3.61,3.24-1.47,4.08-5.7,3.07-8.85Zm-5.68,8.02c-5.91,0-5.91-10.79,0-10.8,5.91,0,5.91,10.79,0,10.8Z"/><rect class="j" x="99.55" y="36.2" width="1.64" height="12.84"/><path class="j" d="M100.37,31.61c-1.36,.03-1.37,2.06,0,2.08,1.36,0,1.35-2.07,0-2.08"/></g><g><path class="k" d="M61.26,16.71c-1.38-2.25-4.78-2.86-7.05-1.67-3.08,1.6-3.65,5.73-2.84,8.8,1.36,5.81,10.21,5.55,11.08-.46h-1.64c-1.41,5.45-8.37,3.63-8.14-1.68h9.82c.06-1.7-.27-3.6-1.23-5Zm-4.42-.87c2.4-.05,3.99,2.24,4.01,4.47h-8.17c.22-2.21,1.7-4.54,4.16-4.47Z"/><path class="k" d="M74.12,17.2c-.98-2.69-4.69-3.37-6.99-2.2-2.32,1.14-3.24,3.75-3.22,6.24-.01,2.48,.9,5.11,3.22,6.23,2.33,1.18,6,.38,7.11-2.19v2.38h1.51V9.93h-1.64v7.27Zm-4.44-1.36c5.97-.16,5.97,10.96,0,10.8-5.58-.03-5.58-10.77,0-10.8Z"/><path class="k" d="M93.52,23.04c-.11,2.74-3.27,4.51-5.6,3.13-1.74-.95-2.5-3.02-2.5-4.94,0-1.91,.76-3.98,2.5-4.94,2.26-1.21,5.15-.08,5.51,2.6h1.63c-.23-3.94-4.67-5.37-7.81-3.91-2.38,1.11-3.49,3.68-3.47,6.24-.44,7.5,10.26,9.77,11.39,1.77h-1.64v.04Z"/><rect class="k" x="98.1" y="14.82" width="1.64" height="12.84"/><path class="k" d="M98.92,10.23c-1.36,.03-1.37,2.06,0,2.08,1.36,0,1.35-2.07,0-2.08"/><rect class="k" x="79.5" y="14.82" width="1.64" height="12.84"/><path class="k" d="M80.32,10.23c-1.36,.03-1.37,2.06,0,2.08,1.36,0,1.35-2.07,0-2.08"/><path class="k" d="M113.4,16.47c-1.58-2.01-4.83-2.57-7.11-1.47-3.95,1.86-4.49,7.83-1.9,11.01,1.59,2.01,4.84,2.52,7.11,1.46,3.96-1.84,4.48-7.83,1.91-11Zm-4.51,10.17c-5.91,0-5.91-10.79,0-10.8,5.91,0,5.91,10.79,0,10.8Z"/><path class="k" d="M127.1,15.79c-1.97-2.15-6.67-1.73-7.8,1.19v-2.16h-1.64v12.84h1.64v-7.48c.03-1.66,.76-3.32,2.31-4.01,1.3-.57,3.34-.47,4.19,.77,.54,.76,.65,1.75,.66,2.72,0,0,0,8,0,8h1.64v-8.25c-.02-1.35-.16-2.64-1-3.62Z"/><path class="k" d="M140.48,16.71c-1.38-2.25-4.78-2.86-7.05-1.67-3.08,1.6-3.65,5.73-2.84,8.8,1.36,5.81,10.21,5.55,11.08-.46h-1.64c-1.41,5.45-8.37,3.63-8.14-1.68h9.82c.06-1.7-.27-3.6-1.23-5Zm-4.42-.87c2.4-.05,3.99,2.24,4.01,4.47h-8.17c.22-2.21,1.7-4.54,4.16-4.47Z"/><path class="k" d="M154.13,22.68c-.63-1.26-2.01-1.9-3.34-2.1l-2.08-.47c-.83-.22-1.84-.52-2.36-1.26-.56-.84-.15-2.09,.72-2.54,2-1.1,5.35-.36,5.31,2.32h1.64c.1-4.64-6.8-5.55-9.11-2.24-1.4,2.67,.5,4.63,3.15,5.13,1.93,.43,6.02,.92,4.44,3.83-1.91,2.3-6.85,1.51-6.84-1.91h-1.64c-.2,6.59,12.52,5.83,10.12-.77Z"/></g><g><path class="g" d="M5.57,28.33v7.53c5.37-6.96,13.5-10.55,13.5-2.43,0,3.43,3.11-.17,5.54-2.16,3.46-2.84,7.92-2.53,8.72,2.8h.12v-5.75c0-7.02-5.03-7.71-8.84-4.59-2.43,1.99-5.54,5.59-5.54,2.17s-1.33-4.66-3.28-4.66c-2.85,0-7.02,2.95-10.22,7.1"/><path class="f" d="M5.57,18.45v7.15c5.49-6.55,13.49-10.17,13.49-2.04,0,3.43,3.11-.19,5.54-2.17,3.46-2.84,7.92-2.53,8.72,2.79h.12v-5.74c0-7.02-5.03-7.71-8.84-4.59-2.43,1.99-5.54,5.59-5.54,2.17s-1.33-4.66-3.28-4.66c-2.85,0-7.02,2.95-10.22,7.09"/></g><rect class="i" x="41.93" y="8.58" width="1.05" height="40.8"/></g></g></symbol></defs><use width="160" height="58" xlink:href="#a"/></svg>