<?xml version="1.0" encoding="UTF-8"?><svg id="b" xmlns="http://www.w3.org/2000/svg" width="48" height="76" xmlns:xlink="http://www.w3.org/1999/xlink" viewBox="0 0 48 76"><defs><style>.d,.e{fill:none;}.f{opacity:.1;}.g,.h{fill:#fff;}.i{fill:#1d549e;}.j{fill:#7798c5;}.e{stroke:#fff;stroke-linecap:round;stroke-miterlimit:10;stroke-width:3px;}.e,.h{opacity:.2;}</style><symbol id="a" viewBox="0 0 48 76"><g><rect class="d" width="48" height="76"/><circle class="g" cx="13.28" cy="60.77" r="7.94"/><path class="j" d="M14.68,61.58l9.34-23.26-6.07-1.97-6.11,24.3c-.46,1.81,2.15,2.66,2.85,.92Z"/><polygon class="f" points="20.16 47.93 21.73 44.02 16.45 42.3 15.42 46.39 20.16 47.93"/><path class="i" d="M41.17,15.06L17.87,7.49c-2.09-.68-4.36,.48-5.04,2.57l-.04,.12c-.68,2.09,.48,4.36,2.57,5.04l.06,.02-6.02,18.55-.06-.02c-2.09-.68-4.36,.48-5.04,2.57l-.04,.12c-.68,2.09,.48,4.36,2.57,5.04l23.3,7.57c2.09,.68,4.36-.48,5.04-2.57l.04-.12c.68-2.09-.48-4.36-2.57-5.04l-.06-.02,6.02-18.55,.06,.02c2.09,.68,4.36-.48,5.04-2.57l.04-.12c.68-2.09-.48-4.36-2.57-5.04Z"/><circle class="h" cx="40.5" cy="18.23" r="1.5"/><line class="e" x1="35.94" y1="16.8" x2="27.94" y2="14.2"/></g></symbol></defs><use width="48" height="76" xlink:href="#a"/></svg>