<?xml version="1.0" encoding="UTF-8"?><svg id="b" xmlns="http://www.w3.org/2000/svg" width="76" height="76" xmlns:xlink="http://www.w3.org/1999/xlink" viewBox="0 0 76 76"><defs><style>.d,.e,.f{fill:none;}.e{stroke:#fbd560;}.e,.f{stroke-linecap:round;stroke-miterlimit:10;stroke-width:3px;}.f{stroke:#f8b100;}.g{fill:#faca38;}.h{fill:#fbd560;}.i{fill:#b0c4db;}.j{fill:#c3d2e4;}.k{fill:#dbe4ef;}</style><symbol id="a" viewBox="0 0 76 76"><g><rect class="d" x="0" width="76" height="76"/><path class="i" d="M31,70.78h0c-2.72-.46-4.56-3.04-4.1-5.76l.95-5.67,9.86,1.66-.95,5.67c-.46,2.72-3.04,4.56-5.76,4.1Z"/><path class="g" d="M62.34,34.09c2.33-13.84-7.29-26.93-21.34-28.74-12.63-1.62-24.59,6.77-27.35,19.2-2.16,9.73,1.66,19.24,8.87,24.93,2.09,1.65,3.17,4.27,2.73,6.9l-.38,2.29,15.9,2.67,.37-2.22c.45-2.67,2.35-4.83,4.91-5.72,8.26-2.89,14.74-10.07,16.29-19.31Z"/><path class="e" d="M54.96,40.14c1.07-1.91,1.83-4.04,2.22-6.33,.54-3.21,.27-6.36-.66-9.26"/><polygon class="f" points="39.91 41.79 32.07 40.47 29.06 58.35 36.9 59.67 39.91 41.79"/><path class="f" d="M45.18,34.57h0c-2.18-.37-4.24,1.1-4.61,3.28l-.66,3.94,3.94,.66c2.18,.37,4.24-1.1,4.61-3.28h0c.37-2.18-1.1-4.24-3.28-4.61Z"/><path class="f" d="M29.45,31.92h0c2.18,.37,3.65,2.43,3.28,4.61l-.66,3.94-3.94-.66c-2.18-.37-3.65-2.43-3.28-4.61h0c.37-2.18,2.43-3.65,4.61-3.28Z"/><path class="j" d="M35.58,68.51l-8.16-1.37c-2.72-.46-4.56-3.04-4.1-5.76l.87-5.18c.05-.27,.3-.46,.58-.41l17.04,2.86c.27,.05,.46,.3,.41,.58l-.87,5.18c-.46,2.72-3.04,4.56-5.76,4.1Z"/><path class="k" d="M42.35,62.29l-18.74-3.15c-.54-.09-.91-.61-.82-1.15h0c.09-.54,.61-.91,1.15-.82l18.74,3.15c.54,.09,.91,.61,.82,1.15h0c-.09,.54-.61,.91-1.15,.82Z"/><path class="k" d="M41.69,66.24l-18.74-3.15c-.54-.09-.91-.61-.82-1.15h0c.09-.54,.61-.91,1.15-.82l18.74,3.15c.54,.09,.91,.61,.82,1.15h0c-.09,.54-.61,.91-1.15,.82Z"/><circle class="h" cx="53.49" cy="18.91" r="2"/><line class="f" x1="68.72" y1="34.32" x2="73.61" y2="35.14"/><line class="f" x1="68.34" y1="25.38" x2="73.19" y2="24.32"/><line class="f" x1="65.4" y1="42.75" x2="69.71" y2="45.22"/><line class="f" x1="7.28" y1="24.02" x2="2.39" y2="23.2"/><line class="f" x1="7.66" y1="32.95" x2="2.81" y2="34.01"/><line class="f" x1="10.6" y1="15.59" x2="6.29" y2="13.11"/></g></symbol></defs><use width="76" height="76" xlink:href="#a"/></svg>