<?xml version="1.0" encoding="UTF-8"?><svg id="b" xmlns="http://www.w3.org/2000/svg" width="48" height="48" viewBox="0 0 48 48"><defs><style>.c{fill:#fff;}</style></defs><path class="c" d="M36.38,11.62c-3.17-3.17-7.55-5.12-12.38-5.12C14.33,6.5,6.5,14.33,6.5,24c0,4.83,1.96,9.21,5.12,12.38s7.55,5.12,12.38,5.12,9.21-1.96,12.38-5.12,5.12-7.55,5.12-12.38-1.96-9.21-5.12-12.38Zm-4.89,11.26l-6.07,6.07c-.39,.39-.9,.58-1.42,.58s-1.02-.2-1.42-.58l-6.07-6.07c-.78-.78-.78-2.05,0-2.83,.78-.78,2.04-.78,2.83,0l4.65,4.65,4.65-4.65c.79-.78,2.05-.78,2.83,0,.78,.78,.78,2.05,0,2.83Z"/></svg>