<?xml version="1.0" encoding="UTF-8"?><svg id="b" xmlns="http://www.w3.org/2000/svg" width="24" height="24" viewBox="0 0 24 24"><defs><style>.c{fill:#fff;}</style></defs><path class="c" d="M20.1,3.9c-4.3-4.5-12-4.5-16.3,0C1.8,5.9,.5,8.8,.5,12c0,10.2,12.5,15.3,19.6,8.1,4.5-4.3,4.5-12,0-16.3Zm-8.1,13c-.8,0-1.5-.2-2.2-.4l-.9,1.3c-.1,.2-.4,.3-.6,.3-.6,0-1-.7-.6-1.2l.8-1.2c-.2-.2-.5-.3-.7-.5-.4,.2-1.2,.9-1.5,.9-.7,0-1-1-.4-1.4l.9-.6c-.6-.9-1.9-4.1,0-4.3,.6,0,1,.5,1,1,0,2.2,1.9,4,4.2,4s4.2-1.8,4.2-4,.5-1,1-1,1,.5,1,1c0,3.3-2.8,6-6.2,6Z"/></svg>