<?xml version="1.0" encoding="UTF-8"?><svg id="b" xmlns="http://www.w3.org/2000/svg" width="24" height="24" viewBox="0 0 24 24"><defs><style>.c{fill:#fff;}</style></defs><path class="c" d="M20.1,3.9c-4.3-4.5-12-4.5-16.3,0C1.8,5.9,.5,8.8,.5,12c0,10.2,12.5,15.3,19.6,8.1,4.5-4.3,4.5-12,0-16.3Zm-1.6,6.1c0,.4-.3,.8-.8,.8h-3.7c-.7,0-1-.8-.5-1.3l1.1-1.1c-2.9-2.1-7.1,0-7.1,3.7,0,2.5,2,4.5,4.5,4.5s2.3-.5,3.2-1.3c.9-.9,2.3,.5,1.4,1.4-1.2,1.2-2.9,1.9-4.6,1.9-3.6,0-6.5-2.9-6.5-6.5,0-5.4,6.4-8.5,10.5-5.1l1.2-1.2c.5-.5,1.3-.2,1.3,.5v3.7Z"/></svg>