<?xml version="1.0" encoding="UTF-8"?><svg id="b" xmlns="http://www.w3.org/2000/svg" width="24" height="24" viewBox="0 0 24 24"><defs><style>.c{fill:#fff;}</style></defs><path class="c" d="M8.5,12h7c.6,0,1,.5,1,1v2.5c0,.6-.4,1-1,1h-7c-.5,0-1-.4-1-1v-2.5c0-.5,.5-1,1-1Zm15,0c0,6.3-5.2,11.5-11.5,11.5-6.3,0-11.5-5.1-11.5-11.5C.5,5.6,5.6,.5,12,.5c6.4,0,11.5,5.1,11.5,11.5Zm-13.2-3.5h3.4v-3h-3.4v3Zm8.2,.6l-3.5-3.5h-.3v3c0,.6-.4,1-1,1h-3.4c-.5,0-1-.4-1-1v-3h-2.3c-.8,0-1.5,.7-1.5,1.5v10c0,.8,.7,1.5,1.5,1.5h10c.8,0,1.5-.7,1.5-1.5v-8Z"/></svg>