<?xml version="1.0" encoding="UTF-8"?><svg id="b" xmlns="http://www.w3.org/2000/svg" width="24" height="24" viewBox="0 0 24 24"><defs><style>.c{fill:#fff;}</style></defs><path class="c" d="M20.1,3.9c-4.3-4.5-12-4.5-16.3,0C-3.3,10.9,1.8,23.5,12,23.5c3.2,0,6-1.3,8.1-3.4,4.5-4.3,4.5-12,0-16.3Zm-11.1,4.6c.1-4,5.9-4,6,0v2c0,1.7-1.3,3-3,3s-3-1.3-3-3v-2Zm8.8,2.2c0,2.9-2.2,5.3-5,5.7v.5h1.6c.4,0,.8,.3,.8,.8s-.3,.8-.8,.8h-4.7c-.4,0-.8-.3-.8-.8s.3-.8,.8-.8h1.6v-.5c-3.1-.4-5.3-3.3-5-6.4,0-1,1.5-1,1.5,0-.2,2.7,1.5,5,4.3,5,2.3,0,4.2-1.9,4.2-4.3v-.8c0-.4,.3-.8,.8-.8s.8,.3,.8,.8v.8Z"/></svg>