<?xml version="1.0" encoding="UTF-8"?><svg id="b" xmlns="http://www.w3.org/2000/svg" width="24" height="24" viewBox="0 0 24 24"><defs><style>.c{fill:#fff;}</style></defs><path class="c" d="M14.6,10.6c0,2-3,2-3,0,0-2,2.9-2,3,0Zm8.9,1.4c0,6.3-5.2,11.5-11.5,11.5-6.4,0-11.5-5.1-11.5-11.5C.5,5.7,5.7,.5,12,.5c6.3,0,11.5,5.2,11.5,11.5Zm-5,1.6c0-4.3-4.7-7.4-8.8-5.8l-.9-1.3c-.2-.3-.7-.4-1-.2-.3,.2-.4,.7-.2,1l.8,1.1c-.2,.2-.5,.3-.7,.5l-1-.7c-.8-.5-1.6,.7-.8,1.2l.8,.6c-.6,.7-2.1,4.2-.4,4.3,.4,0,.8-.3,.8-.8,0-1.5,.8-2.9,2-3.8-1.4,2.2,.3,5.3,3,5.3,2.7,0,4.4-3,3-5.3,1.2,.9,2,2.2,2,3.8,0,1,1.5,1,1.5,0Z"/></svg>